<?xml version="1.0" encoding="UTF-8"?>
<svg width="140px" height="40px" viewBox="0 0 140 40" version="1.1" xmlns="http://www.w3.org/2000/svg" xmlns:xlink="http://www.w3.org/1999/xlink">
    <!-- Generator: Sketch 63.1 (92452) - https://sketch.com -->
    <title>uidesigndaily-logo</title>
    <desc>Created with Sketch.</desc>
    <g id="Logo" stroke="none" stroke-width="1" fill="none" fill-rule="evenodd">
        <g transform="translate(-58.000000, -241.000000)" fill="#242E4C" fill-rule="nonzero" id="uidesigndaily-logo">
            <g transform="translate(58.000000, 241.000000)">
                <path d="M50.699836,25.8253292 C52.5813331,25.8253292 54.0413967,25.3223278 55.0800267,24.316325 C56.1186566,23.3103222 56.6379716,21.8937614 56.6379716,20.0666428 C56.6379716,18.2503999 56.1186566,16.839277 55.0800267,15.8332742 C54.0413967,14.8272713 52.5813331,14.3242699 50.699836,14.3242699 L50.699836,14.3242699 L47.4697512,14.3242699 C47.1543557,14.3242699 46.9069334,14.4112756 46.7274843,14.5852869 C46.5480351,14.7592982 46.4583105,15.0040016 46.4583105,15.319397 L46.4583105,15.319397 L46.4583105,24.8302021 C46.4583105,25.1455976 46.5480351,25.390301 46.7274843,25.5643123 C46.9069334,25.7383236 47.1543557,25.8253292 47.4697512,25.8253292 L47.4697512,25.8253292 L50.699836,25.8253292 Z M50.5693275,24.1124055 L48.5627597,24.1124055 L48.5627597,16.0371936 L50.5693275,16.0371936 C53.2121241,16.0371936 54.5335224,17.3803434 54.5335224,20.0666428 C54.5335224,22.7638179 53.2121241,24.1124055 50.5693275,24.1124055 L50.5693275,24.1124055 Z M62.3150902,25.9558377 C62.7392428,25.9558377 63.1851467,25.8933024 63.6528021,25.7682318 C64.1204574,25.6431612 64.5391721,25.4773066 64.9089461,25.2706682 C65.3113473,25.0422784 65.5125478,24.75951 65.5125478,24.4223631 C65.5125478,24.1830976 65.4554504,23.9927727 65.3412555,23.8513886 C65.2270605,23.7100044 65.0775196,23.6393123 64.8926326,23.6393123 C64.7403727,23.6393123 64.5011072,23.7263179 64.174836,23.9003292 C63.8376891,24.0525891 63.5358882,24.1722219 63.2694334,24.2592275 C63.0029786,24.3462332 62.6957399,24.389736 62.3477173,24.389736 C61.6625478,24.389736 61.1405139,24.2130058 60.7816156,23.8595453 C60.4227173,23.5060849 60.2106411,22.9541428 60.1453868,22.2037191 L60.1453868,22.2037191 L64.9578868,22.2037191 C65.3711637,22.2037191 65.5778021,21.9698914 65.5778021,21.502236 C65.5778021,20.7191852 65.43098,20.0394535 65.137336,19.4630411 C64.8436919,18.8866287 64.4304151,18.4407247 63.8975055,18.1253292 C63.3645959,17.8099338 62.7392428,17.652236 62.0214461,17.652236 C61.2710224,17.652236 60.5994476,17.8262473 60.0067216,18.1742699 C59.4139956,18.5222925 58.954497,19.0116993 58.6282258,19.6424903 C58.3019546,20.2732812 58.138819,20.9965157 58.138819,21.8121936 C58.138819,23.095527 58.5140309,24.1069677 59.2644546,24.8465157 C60.0148783,25.5860637 61.0317569,25.9558377 62.3150902,25.9558377 Z M63.8322512,21.1107106 L60.1453868,21.1107106 C60.2106411,20.4581682 60.4091227,19.9578857 60.7408317,19.6098631 C61.0725408,19.2618405 61.5157258,19.0878292 62.0703868,19.0878292 C62.6141721,19.0878292 63.0383247,19.2591216 63.3428444,19.6017064 C63.6473642,19.9442911 63.8104998,20.4472925 63.8322512,21.1107106 L63.8322512,21.1107106 Z M70.1292851,25.9558377 C71.1516015,25.9558377 71.9699984,25.7328857 72.5844758,25.2869818 C73.1989532,24.8410778 73.5061919,24.2483518 73.5061919,23.5088038 C73.5061919,23.0520242 73.4164673,22.6768123 73.2370182,22.3831682 C73.057569,22.0895242 72.761206,21.8448208 72.3479292,21.6490581 C71.9346524,21.4532953 71.3636778,21.279284 70.6350055,21.1270242 C69.949836,20.98564 69.4876185,20.8442558 69.2483529,20.7028716 C69.0090874,20.5614874 68.8894546,20.354849 68.8894546,20.0829564 C68.8894546,19.800188 69.0063685,19.577236 69.2401961,19.4141004 C69.4740238,19.2509648 69.7921382,19.169397 70.1945394,19.169397 C70.5316863,19.169397 70.8144546,19.2101809 71.0428444,19.2917487 C71.2712343,19.3733165 71.5431269,19.4956682 71.8585224,19.6588038 C72.0325337,19.7566852 72.1766368,19.8300962 72.2908317,19.8790369 C72.4050267,19.9279775 72.5219405,19.9524479 72.6415733,19.9524479 C72.8155846,19.9524479 72.9624066,19.8790369 73.0820394,19.7322148 C73.2016721,19.5853928 73.2614885,19.4032247 73.2614885,19.1857106 C73.2614885,18.8268123 73.0874772,18.5386061 72.7394546,18.321092 C72.4023077,18.1035778 72.021658,17.9377233 71.5975055,17.8235284 C71.1733529,17.7093335 70.7328868,17.652236 70.2761072,17.652236 C69.6453162,17.652236 69.0824984,17.7582742 68.5876538,17.9703504 C68.0928091,18.1824267 67.7040026,18.4815086 67.4212343,18.8675962 C67.1384659,19.2536838 66.9970817,19.6859931 66.9970817,20.1645242 C66.9970817,20.7953151 67.2064391,21.2901597 67.6251538,21.6490581 C68.0438685,22.0079564 68.7371947,22.2852869 69.7051326,22.4810496 C70.2489179,22.6006823 70.654038,22.7067205 70.9204928,22.799164 C71.1869476,22.8916075 71.3718346,22.9922078 71.4751538,23.1009648 C71.578473,23.2097219 71.6301326,23.3565439 71.6301326,23.5414309 C71.6301326,23.8133236 71.502343,24.0253999 71.2467639,24.1776597 C70.9911848,24.3299196 70.6350055,24.4060496 70.1782258,24.4060496 C69.7323218,24.4060496 69.3652668,24.3625468 69.0770605,24.2755411 C68.7888543,24.1885355 68.4707399,24.0634648 68.1227173,23.9003292 C67.7964461,23.7263179 67.540867,23.6393123 67.35598,23.6393123 C67.1819687,23.6393123 67.0351467,23.7072855 66.9155139,23.8432318 C66.7958812,23.9791781 66.7360648,24.1559083 66.7360648,24.3734225 C66.7360648,24.7540722 66.9100761,25.0477162 67.2580987,25.2543547 C67.986771,25.72201 68.9438331,25.9558377 70.1292851,25.9558377 Z M76.1653021,16.2329564 C76.5350761,16.2329564 76.8287202,16.1323561 77.0462343,15.9311555 C77.2637484,15.7299549 77.3725055,15.4662191 77.3725055,15.1399479 C77.3725055,14.8136767 77.2610295,14.5526597 77.0380775,14.356897 C76.8151255,14.1611343 76.5242004,14.063253 76.1653021,14.063253 C75.7955281,14.063253 75.501884,14.1611343 75.2843699,14.356897 C75.0668557,14.5526597 74.9580987,14.8136767 74.9580987,15.1399479 C74.9580987,15.4662191 75.0668557,15.7299549 75.2843699,15.9311555 C75.501884,16.1323561 75.7955281,16.2329564 76.1653021,16.2329564 Z M76.1653021,25.9232106 C76.4589461,25.9232106 76.7036495,25.8389239 76.8994122,25.6703504 C77.095175,25.501777 77.1930563,25.2597925 77.1930563,24.944397 L77.1930563,24.944397 L77.1930563,18.6473631 C77.1930563,18.3319677 77.095175,18.0927021 76.8994122,17.9295665 C76.7036495,17.7664309 76.4589461,17.6848631 76.1653021,17.6848631 C75.871658,17.6848631 75.6296735,17.7664309 75.4393487,17.9295665 C75.2490238,18.0927021 75.1538614,18.3319677 75.1538614,18.6473631 L75.1538614,18.6473631 L75.1538614,24.944397 C75.1538614,25.2597925 75.2490238,25.501777 75.4393487,25.6703504 C75.6296735,25.8389239 75.871658,25.9232106 76.1653021,25.9232106 Z M82.9354292,28.8922784 C84.2948925,28.8922784 85.3226467,28.5714451 86.0186919,27.9297784 C86.7147371,27.2881117 87.0627597,26.3419253 87.0627597,25.0912191 L87.0627597,25.0912191 L87.0627597,18.6473631 C87.0627597,18.3537191 86.9703162,18.1198914 86.7854292,17.9458801 C86.6005422,17.7718688 86.3558388,17.6848631 86.051319,17.6848631 C85.7467993,17.6848631 85.5020959,17.7718688 85.3172089,17.9458801 C85.1323218,18.1198914 85.0398783,18.3482812 85.0398783,18.6310496 L85.0398783,18.6310496 L85.0398783,19.0552021 C84.8006128,18.6092982 84.4525902,18.2639945 83.9958105,18.0192911 C83.5390309,17.7745877 83.016997,17.652236 82.4297089,17.652236 C81.7336637,17.652236 81.1137484,17.8180905 80.5699631,18.1497996 C80.0261778,18.4815086 79.6047442,18.949164 79.3056622,19.5527657 C79.0065803,20.1563674 78.8570394,20.8496936 78.8570394,21.6327445 C78.8570394,22.4157953 79.0092993,23.1064027 79.313819,23.7045665 C79.6183388,24.3027304 80.0397724,24.7676668 80.5781199,25.0993758 C81.1164673,25.4310849 81.7336637,25.5969394 82.4297089,25.5969394 C83.016997,25.5969394 83.5390309,25.4745877 83.9958105,25.2298843 C84.4525902,24.9851809 84.8006128,24.6398773 85.0398783,24.1939733 L85.0398783,24.1939733 L85.0398783,25.2380411 C85.0398783,26.6301315 84.3275196,27.3261767 82.9028021,27.3261767 C82.5004009,27.3261767 82.1442216,27.2826739 81.8342639,27.1956682 C81.5243063,27.1086626 81.1735648,26.983592 80.7820394,26.8204564 C80.6297795,26.7552021 80.4829574,26.6981047 80.3415733,26.649164 C80.2001891,26.6002233 80.0805563,26.575753 79.982675,26.575753 C79.797788,26.575753 79.648247,26.6464451 79.5340521,26.7878292 C79.4198572,26.9292134 79.3627597,27.1195383 79.3627597,27.3588038 C79.3627597,27.6959507 79.5639603,27.9841569 79.9663614,28.2234225 C80.760288,28.6693264 81.7499772,28.8922784 82.9354292,28.8922784 Z M82.9680563,24.0145242 C82.3263896,24.0145242 81.8206693,23.8024479 81.4508953,23.3782953 C81.0811213,22.9541428 80.8962343,22.3722925 80.8962343,21.6327445 C80.8962343,20.8823208 81.0811213,20.2950326 81.4508953,19.8708801 C81.8206693,19.4467275 82.3263896,19.2346513 82.9680563,19.2346513 C83.6205987,19.2346513 84.129038,19.4467275 84.4933741,19.8708801 C84.8577103,20.2950326 85.0398783,20.8823208 85.0398783,21.6327445 C85.0398783,22.3722925 84.8577103,22.9541428 84.4933741,23.3782953 C84.129038,23.8024479 83.6205987,24.0145242 82.9680563,24.0145242 Z M95.6273783,25.9232106 C95.9427738,25.9232106 96.1901961,25.8362049 96.3696453,25.6621936 C96.5490944,25.4881823 96.638819,25.2489168 96.638819,24.944397 L96.638819,24.944397 L96.638819,20.9312614 C96.638819,19.8328151 96.4049913,19.0116993 95.937336,18.467914 C95.4696806,17.9241287 94.7573218,17.652236 93.8002597,17.652236 C93.2238473,17.652236 92.7072512,17.7718688 92.2504716,18.0111343 C91.7936919,18.2503999 91.4293557,18.5929846 91.1574631,19.0388886 L91.1574631,19.0388886 L91.1574631,18.5984225 C91.1574631,18.3265298 91.0677385,18.1062968 90.8882894,17.9377233 C90.7088402,17.7691499 90.4777315,17.6848631 90.1949631,17.6848631 C89.8795676,17.6848631 89.6294264,17.7718688 89.4445394,17.9458801 C89.2596524,18.1198914 89.1672089,18.3482812 89.1672089,18.6310496 L89.1672089,18.6310496 L89.1672089,24.944397 C89.1672089,25.2489168 89.2569334,25.4881823 89.4363826,25.6621936 C89.6158317,25.8362049 89.8632541,25.9232106 90.1786495,25.9232106 C90.494045,25.9232106 90.7441863,25.8362049 90.9290733,25.6621936 C91.1139603,25.4881823 91.2064038,25.2489168 91.2064038,24.944397 L91.2064038,24.944397 L91.2064038,21.3064733 C91.2064038,20.6865581 91.383134,20.1917134 91.7365944,19.8219394 C92.0900549,19.4521654 92.5604292,19.2672784 93.1477173,19.2672784 C93.6479998,19.2672784 94.0150549,19.4086626 94.2488826,19.6914309 C94.4827103,19.9741993 94.5996241,20.4255411 94.5996241,21.0454564 L94.5996241,21.0454564 L94.5996241,24.944397 C94.5996241,25.2489168 94.6920676,25.4881823 94.8769546,25.6621936 C95.0618416,25.8362049 95.3119829,25.9232106 95.6273783,25.9232106 Z M107.55259,25.8253292 C109.434087,25.8253292 110.894151,25.3223278 111.932781,24.316325 C112.971411,23.3103222 113.490726,21.8937614 113.490726,20.0666428 C113.490726,18.2503999 112.971411,16.839277 111.932781,15.8332742 C110.894151,14.8272713 109.434087,14.3242699 107.55259,14.3242699 L107.55259,14.3242699 L104.322505,14.3242699 C104.00711,14.3242699 103.759688,14.4112756 103.580239,14.5852869 C103.400789,14.7592982 103.311065,15.0040016 103.311065,15.319397 L103.311065,15.319397 L103.311065,24.8302021 C103.311065,25.1455976 103.400789,25.390301 103.580239,25.5643123 C103.759688,25.7383236 104.00711,25.8253292 104.322505,25.8253292 L104.322505,25.8253292 L107.55259,25.8253292 Z M107.422082,24.1124055 L105.415514,24.1124055 L105.415514,16.0371936 L107.422082,16.0371936 C110.064878,16.0371936 111.386277,17.3803434 111.386277,20.0666428 C111.386277,22.7638179 110.064878,24.1124055 107.422082,24.1124055 L107.422082,24.1124055 Z M117.976955,25.9558377 C118.498989,25.9558377 118.958487,25.8362049 119.35545,25.5969394 C119.752414,25.3576739 120.043339,25.0259648 120.228226,24.6018123 L120.228226,24.6018123 L120.228226,24.9607106 C120.228226,25.243479 120.31795,25.4718688 120.4974,25.6458801 C120.676849,25.8198914 120.907957,25.906897 121.190726,25.906897 C121.495246,25.906897 121.734511,25.8226103 121.908522,25.6540369 C122.082534,25.4854634 122.169539,25.2543547 122.169539,24.9607106 L122.169539,24.9607106 L122.169539,20.9802021 C122.169539,19.8600044 121.900366,19.0252939 121.362018,18.4760708 C120.823671,17.9268476 119.999836,17.652236 118.890514,17.652236 C118.379356,17.652236 117.860041,17.7120524 117.332569,17.8316852 C116.805097,17.9513179 116.351037,18.1144535 115.970387,18.321092 C115.752873,18.4407247 115.597894,18.5685143 115.50545,18.7044606 C115.413007,18.8404069 115.366785,19.0008236 115.366785,19.1857106 C115.366785,19.4141004 115.42932,19.5989874 115.554391,19.7403716 C115.679462,19.8817558 115.839878,19.9524479 116.035641,19.9524479 C116.16615,19.9524479 116.372788,19.8817558 116.655556,19.7403716 C117.10146,19.5663603 117.487548,19.4331329 117.813819,19.3406894 C118.14009,19.2482459 118.460924,19.2020242 118.776319,19.2020242 C119.287477,19.2020242 119.657251,19.3243758 119.885641,19.5690792 C120.114031,19.8137826 120.228226,20.2025891 120.228226,20.7354987 L120.228226,20.7354987 L120.228226,21.1107106 L119.820387,21.1107106 C118.634935,21.1107106 117.705062,21.1868405 117.030768,21.3391004 C116.356474,21.4913603 115.869787,21.7360637 115.570705,22.0732106 C115.271623,22.4103575 115.122082,22.872575 115.122082,23.4598631 C115.122082,23.9275185 115.247152,24.351671 115.497294,24.7323208 C115.747435,25.1129705 116.09002,25.4120524 116.525048,25.6295665 C116.960076,25.8470807 117.444045,25.9558377 117.976955,25.9558377 Z M118.384794,24.4876174 C118.025895,24.4876174 117.724094,24.3761414 117.479391,24.1531894 C117.234688,23.9302374 117.112336,23.6447501 117.112336,23.2967275 C117.112336,23.0139592 117.199342,22.7910072 117.373353,22.6278716 C117.547364,22.464736 117.83557,22.3505411 118.237972,22.2852869 C118.640373,22.2200326 119.205909,22.1874055 119.934582,22.1874055 L119.934582,22.1874055 L120.228226,22.1874055 L120.228226,22.5299903 C120.228226,23.1064027 120.056933,23.576777 119.714349,23.9411131 C119.371764,24.3054493 118.928579,24.4876174 118.384794,24.4876174 Z M125.252802,16.2329564 C125.622576,16.2329564 125.91622,16.1323561 126.133734,15.9311555 C126.351248,15.7299549 126.460005,15.4662191 126.460005,15.1399479 C126.460005,14.8136767 126.348529,14.5526597 126.125577,14.356897 C125.902626,14.1611343 125.6117,14.063253 125.252802,14.063253 C124.883028,14.063253 124.589384,14.1611343 124.37187,14.356897 C124.154356,14.5526597 124.045599,14.8136767 124.045599,15.1399479 C124.045599,15.4662191 124.154356,15.7299549 124.37187,15.9311555 C124.589384,16.1323561 124.883028,16.2329564 125.252802,16.2329564 Z M125.252802,25.9232106 C125.546446,25.9232106 125.79115,25.8389239 125.986912,25.6703504 C126.182675,25.501777 126.280556,25.2597925 126.280556,24.944397 L126.280556,24.944397 L126.280556,18.6473631 C126.280556,18.3319677 126.182675,18.0927021 125.986912,17.9295665 C125.79115,17.7664309 125.546446,17.6848631 125.252802,17.6848631 C124.959158,17.6848631 124.717174,17.7664309 124.526849,17.9295665 C124.336524,18.0927021 124.241361,18.3319677 124.241361,18.6473631 L124.241361,18.6473631 L124.241361,24.944397 C124.241361,25.2597925 124.336524,25.501777 124.526849,25.6703504 C124.717174,25.8389239 124.959158,25.9232106 125.252802,25.9232106 Z M129.396446,25.9232106 C129.69009,25.9232106 129.934794,25.8389239 130.130556,25.6703504 C130.326319,25.501777 130.4242,25.2597925 130.4242,24.944397 L130.4242,24.944397 L130.4242,15.2052021 C130.4242,14.8898066 130.326319,14.6505411 130.130556,14.4874055 C129.934794,14.3242699 129.69009,14.2427021 129.396446,14.2427021 C129.102802,14.2427021 128.860818,14.3242699 128.670493,14.4874055 C128.480168,14.6505411 128.385005,14.8898066 128.385005,15.2052021 L128.385005,15.2052021 L128.385005,24.944397 C128.385005,25.2597925 128.480168,25.501777 128.670493,25.6703504 C128.860818,25.8389239 129.102802,25.9232106 129.396446,25.9232106 Z M134.486277,28.8433377 C134.877802,28.8433377 135.166008,28.6584507 135.350895,28.2886767 L135.350895,28.2886767 L139.804497,18.9573208 C139.869751,18.8268123 139.902378,18.7017417 139.902378,18.5821089 C139.902378,18.3319677 139.801778,18.1226103 139.600577,17.9540369 C139.399377,17.7854634 139.173706,17.7011767 138.923565,17.7011767 C138.749553,17.7011767 138.589137,17.7473984 138.442315,17.839842 C138.295493,17.9322855 138.178579,18.0763886 138.091573,18.2721513 L138.091573,18.2721513 L135.823989,23.2967275 L133.54009,18.2558377 C133.453085,18.060075 133.333452,17.9159719 133.181192,17.8235284 C133.028932,17.7310849 132.860359,17.6848631 132.675472,17.6848631 C132.403579,17.6848631 132.161594,17.7718688 131.949518,17.9458801 C131.737442,18.1198914 131.631404,18.3319677 131.631404,18.5821089 C131.631404,18.7234931 131.658593,18.8485637 131.712972,18.9573208 L131.712972,18.9573208 L134.747294,25.2706682 L133.637972,27.6035072 C133.572717,27.7557671 133.54009,27.8917134 133.54009,28.0113462 C133.54009,28.2506117 133.635253,28.4490934 133.825577,28.6067911 C134.015902,28.7644888 134.236135,28.8433377 134.486277,28.8433377 Z" id="DesignDaily"></path>
                <path d="M2.21000547,7.7321089 C7.45203021,-1.34734429 21.3085184,-1.78870317 30.3879716,3.45332157 C39.4674248,8.69534632 42.5782752,20.3051981 37.3362504,29.3846513 C32.0942257,38.4641045 19.8911536,42.7834557 10.8117004,37.5414309 C1.73224719,32.2994062 -3.03201928,16.8115621 2.21000547,7.7321089 Z M22.0443275,13.3232106 C21.6715874,13.3232106 21.3759659,13.4356753 21.1574631,13.6606047 C20.970175,13.8534013 20.8631532,14.1004957 20.8363977,14.401888 L20.8297089,14.5571089 L20.8297089,21.6520242 C20.8297089,22.8088038 20.553367,23.6892417 20.0006834,24.2933377 C19.4479998,24.8974338 18.6446806,25.1994818 17.5907258,25.1994818 C16.5239179,25.1994818 15.7141721,24.900647 15.1614885,24.3029775 C14.651319,23.7512826 14.3766124,22.9559111 14.3373686,21.9168628 L14.3324631,21.6520242 L14.3324631,14.5571089 C14.3324631,14.1843688 14.2232117,13.885534 14.0047089,13.6606047 C13.786206,13.4356753 13.4905846,13.3232106 13.1178444,13.3232106 C12.7451043,13.3232106 12.4494829,13.4356753 12.23098,13.6606047 C12.0436919,13.8534013 11.9366701,14.1004957 11.9099147,14.401888 L11.9032258,14.5571089 L11.9032258,21.5170665 C11.9032258,23.367914 12.3852173,24.7753292 13.3492004,25.7393123 C14.3131834,26.7032953 15.7270252,27.1852869 17.5907258,27.1852869 C19.4415733,27.1852869 20.8489885,26.7000821 21.8129716,25.7296725 C22.7202497,24.8163458 23.2005735,23.5187601 23.2539428,21.8369154 L23.2589461,21.5170665 L23.2589461,14.5571089 C23.2589461,14.1843688 23.1496947,13.885534 22.9311919,13.6606047 C22.7126891,13.4356753 22.4170676,13.3232106 22.0443275,13.3232106 Z M27.3462343,13.3232106 C26.9734942,13.3232106 26.6746594,13.4356753 26.44973,13.6606047 C26.2569334,13.8534013 26.1467639,14.1004957 26.1192216,14.401888 L26.112336,14.5571089 L26.112336,25.8742699 C26.112336,26.24701 26.2248007,26.5490581 26.44973,26.780414 C26.6746594,27.0117699 26.9734942,27.1274479 27.3462343,27.1274479 C27.7318275,27.1274479 28.0370888,27.0117699 28.2620182,26.780414 C28.4548148,26.5821089 28.5649843,26.3318668 28.5925267,26.0296876 L28.5994122,25.8742699 L28.5994122,14.5571089 C28.5994122,14.1843688 28.4869476,13.885534 28.2620182,13.6606047 C28.0370888,13.4356753 27.7318275,13.3232106 27.3462343,13.3232106 Z" id="Combined-Shape"></path>
            </g>
        </g>
    </g>
</svg>