<?xml version="1.0" encoding="UTF-8"?>
<svg width="199px" height="195px" viewBox="0 0 199 195" version="1.1" xmlns="http://www.w3.org/2000/svg" xmlns:xlink="http://www.w3.org/1999/xlink">
    <!-- Generator: Sketch 63.1 (92452) - https://sketch.com -->
    <title>slack-uidd</title>
    <desc>Created with Sketch.</desc>
    <defs>
        <circle id="path-1" cx="65.5199992" cy="65.5199992" r="65.5199992"></circle>
        <filter x="-21.4%" y="-19.8%" width="142.7%" height="142.7%" filterUnits="objectBoundingBox" id="filter-2">
            <feOffset dx="0" dy="2" in="SourceAlpha" result="shadowOffsetOuter1"></feOffset>
            <feGaussianBlur stdDeviation="9" in="shadowOffsetOuter1" result="shadowBlurOuter1"></feGaussianBlur>
            <feColorMatrix values="0 0 0 0 0.484265491   0 0 0 0 0.536583595   0 0 0 0 0.809216486  0 0 0 0.1 0" type="matrix" in="shadowBlurOuter1"></feColorMatrix>
        </filter>
        <linearGradient x1="0%" y1="50%" x2="99.2074603%" y2="50%" id="linearGradient-3">
            <stop stop-color="#F073C8" offset="0%"></stop>
            <stop stop-color="#FF6A95" offset="100%"></stop>
        </linearGradient>
        <path d="M37.0632474,59.3730209 C50.1934307,59.4056997 60.6934582,47.0701281 60.6607907,33.9021355 C60.6279705,20.7341428 49.9573097,10.0328315 36.8271264,10 C23.696943,9.96734381 8.96731066,19.1125258 9,32.2805184 C9.03279833,45.4485111 23.9330641,59.340212 37.0632474,59.3730209 Z" id="path-4"></path>
        <filter x="-86.1%" y="-73.9%" width="272.3%" height="280.3%" filterUnits="objectBoundingBox" id="filter-5">
            <feMorphology radius="4.5" operator="erode" in="SourceAlpha" result="shadowSpreadOuter1"></feMorphology>
            <feOffset dx="0" dy="8" in="shadowSpreadOuter1" result="shadowOffsetOuter1"></feOffset>
            <feGaussianBlur stdDeviation="18" in="shadowOffsetOuter1" result="shadowBlurOuter1"></feGaussianBlur>
            <feColorMatrix values="0 0 0 0 0.947890094   0 0 0 0 0.262218176   0 0 0 0 0.663587103  0 0 0 0.459271198 0" type="matrix" in="shadowBlurOuter1"></feColorMatrix>
        </filter>
        <path d="M7.4473332,17.9917345 C9.76199003,17.9917345 11.5220937,17.3814411 12.7276441,16.1608544 C13.9331945,14.9402676 14.5359698,13.1740544 14.5359698,10.8622146 L14.5359698,10.8622146 L14.5359698,2.10794013 C14.5359698,1.63910549 14.3993407,1.26322944 14.1260826,0.980311983 C13.8528245,0.697394526 13.4831224,0.555935797 13.0169762,0.555935797 C12.55083,0.555935797 12.1811279,0.697394526 11.9078698,0.980311983 C11.6346117,1.26322944 11.4979827,1.63910549 11.4979827,2.10794013 L11.4979827,2.10794013 L11.4979827,11.0319651 C11.4979827,12.4869691 11.1523915,13.5943889 10.4612093,14.3542243 C9.77002703,15.1140598 8.76540167,15.4939775 7.4473332,15.4939775 C6.11319071,15.4939775 5.10052835,15.1181015 4.4093461,14.3663494 C3.71816385,13.6145973 3.37257273,12.5031358 3.37257273,11.0319651 L3.37257273,11.0319651 L3.37257273,2.10794013 C3.37257273,1.63910549 3.23594368,1.26322944 2.96268558,0.980311983 C2.68942748,0.697394526 2.31972535,0.555935797 1.85357918,0.555935797 C1.38743301,0.555935797 1.01773088,0.697394526 0.744472778,0.980311983 C0.471214679,1.26322944 0.33458563,1.63910549 0.33458563,2.10794013 L0.33458563,2.10794013 L0.33458563,10.8622146 C0.33458563,13.1902211 0.937360847,14.960476 2.14291128,16.1729794 C3.34846172,17.3854828 5.11660235,17.9917345 7.4473332,17.9917345 Z M19.6475036,17.9189843 C20.1297238,17.9189843 20.5114814,17.7734839 20.7927765,17.4824831 C21.0740716,17.1914823 21.2147192,16.8115645 21.2147192,16.3427299 L21.2147192,16.3427299 L21.2147192,2.10794013 C21.2147192,1.63910549 21.0740716,1.26322944 20.7927765,0.980311983 C20.5114814,0.697394526 20.1297238,0.555935797 19.6475036,0.555935797 C19.1813574,0.555935797 18.8076368,0.697394526 18.5263417,0.980311983 C18.2450466,1.26322944 18.104399,1.63910549 18.104399,2.10794013 L18.104399,2.10794013 L18.104399,16.3427299 C18.104399,16.8115645 18.2450466,17.1914823 18.5263417,17.4824831 C18.8076368,17.7734839 19.1813574,17.9189843 19.6475036,17.9189843 Z" id="path-6"></path>
        <filter x="-69.4%" y="-37.3%" width="191.0%" height="166.3%" filterUnits="objectBoundingBox" id="filter-7">
            <feMorphology radius="4.5" operator="erode" in="SourceAlpha" result="shadowSpreadOuter1"></feMorphology>
            <feOffset dx="0" dy="8" in="shadowSpreadOuter1" result="shadowOffsetOuter1"></feOffset>
            <feGaussianBlur stdDeviation="5" in="shadowOffsetOuter1" result="shadowBlurOuter1"></feGaussianBlur>
            <feColorMatrix values="0 0 0 0 0.947890094   0 0 0 0 0.262218176   0 0 0 0 0.663587103  0 0 0 1 0" type="matrix" in="shadowBlurOuter1"></feColorMatrix>
        </filter>
    </defs>
    <g id="Join-Slack" stroke="none" stroke-width="1" fill="none" fill-rule="evenodd">
        <g transform="translate(-621.000000, -157.000000)" id="slack-uidd">
            <g transform="translate(621.000000, 157.000000)">
                <path d="M98.4000015,194.400003 C148.326544,194.400003 198.800003,145.926544 198.800003,96 C198.800003,46.0734593 143.926544,0 94,0 C44.0734593,0 0,50.0734594 0,100 C0,149.926544 48.4734593,194.400003 98.4000015,194.400003 Z" id="Oval" fill="#EBEBF2" opacity="0.148809524"></path>
                <g id="Group-4" transform="translate(31.600000, 10.600001)" fill-rule="nonzero">
                    <g id="Group-2" transform="translate(0.000000, 23.000000)">
                        <g id="Oval">
                            <use fill="black" fill-opacity="1" filter="url(#filter-2)" xlink:href="#path-1"></use>
                            <use fill="#FFFFFF" xlink:href="#path-1"></use>
                        </g>
                        <g id="Slack_RGB" transform="translate(19.200000, 19.200000)">
                            <g id="Group">
                                <g transform="translate(0.000000, 47.519999)" fill="#E01E5A" id="Path">
                                    <path d="M19.5839998,10.0799999 C19.5839998,15.3359998 15.3359998,19.5839998 10.0799999,19.5839998 C4.82399994,19.5839998 0.575999993,15.3359998 0.575999993,10.0799999 C0.575999993,4.82399994 4.82399994,0.575999993 10.0799999,0.575999993 L19.5839998,0.575999993 L19.5839998,10.0799999 Z"></path>
                                    <path d="M24.3359997,10.0799999 C24.3359997,4.82399994 28.5839997,0.575999993 33.8399996,0.575999993 C39.0959995,0.575999993 43.3439995,4.82399994 43.3439995,10.0799999 L43.3439995,33.8399996 C43.3439995,39.0959995 39.0959995,43.3439995 33.8399996,43.3439995 C28.5839997,43.3439995 24.3359997,39.0959995 24.3359997,33.8399996 L24.3359997,10.0799999 Z"></path>
                                </g>
                                <g fill="#36C5F0" id="Path">
                                    <path d="M33.8399996,19.4399998 C28.5839997,19.4399998 24.3359997,15.1919998 24.3359997,9.93599988 C24.3359997,4.67999995 28.5839997,0.431999995 33.8399996,0.431999995 C39.0959995,0.431999995 43.3439995,4.67999995 43.3439995,9.93599988 L43.3439995,19.4399998 L33.8399996,19.4399998 Z"></path>
                                    <path d="M33.8399996,24.2639997 C39.0959995,24.2639997 43.3439995,28.5119997 43.3439995,33.7679996 C43.3439995,39.0239995 39.0959995,43.2719995 33.8399996,43.2719995 L10.0079999,43.2719995 C4.75199994,43.2719995 0.503999994,39.0239995 0.503999994,33.7679996 C0.503999994,28.5119997 4.75199994,24.2639997 10.0079999,24.2639997 L33.8399996,24.2639997 Z"></path>
                                </g>
                                <g transform="translate(47.519999, 0.000000)" fill="#2EB67D" id="Path">
                                    <path d="M24.4079997,33.7679996 C24.4079997,28.5119997 28.6559997,24.2639997 33.9119996,24.2639997 C39.1679995,24.2639997 43.4159995,28.5119997 43.4159995,33.7679996 C43.4159995,39.0239995 39.1679995,43.2719995 33.9119996,43.2719995 L24.4079997,43.2719995 L24.4079997,33.7679996 Z"></path>
                                    <path d="M19.6559998,33.7679996 C19.6559998,39.0239995 15.4079998,43.2719995 10.1519999,43.2719995 C4.89599994,43.2719995 0.647999992,39.0239995 0.647999992,33.7679996 L0.647999992,9.93599988 C0.647999992,4.67999995 4.89599994,0.431999995 10.1519999,0.431999995 C15.4079998,0.431999995 19.6559998,4.67999995 19.6559998,9.93599988 L19.6559998,33.7679996 Z"></path>
                                </g>
                                <g transform="translate(47.519999, 47.519999)" fill="#ECB22E" id="Path">
                                    <path d="M10.1519999,24.3359997 C15.4079998,24.3359997 19.6559998,28.5839997 19.6559998,33.8399996 C19.6559998,39.0959995 15.4079998,43.3439995 10.1519999,43.3439995 C4.89599994,43.3439995 0.647999992,39.0959995 0.647999992,33.8399996 L0.647999992,24.3359997 L10.1519999,24.3359997 Z"></path>
                                    <path d="M10.1519999,19.5839998 C4.89599994,19.5839998 0.647999992,15.3359998 0.647999992,10.0799999 C0.647999992,4.82399994 4.89599994,0.575999993 10.1519999,0.575999993 L33.9839996,0.575999993 C39.2399995,0.575999993 43.4879995,4.82399994 43.4879995,10.0799999 C43.4879995,15.3359998 39.2399995,19.5839998 33.9839996,19.5839998 L10.1519999,19.5839998 Z"></path>
                                </g>
                            </g>
                        </g>
                    </g>
                    <g id="Group-8" transform="translate(77.400000, 0.399999)">
                        <g id="Oval" transform="translate(34.830395, 34.686510) rotate(-330.000000) translate(-34.830395, -34.686510) ">
                            <use fill="black" fill-opacity="1" filter="url(#filter-5)" xlink:href="#path-4"></use>
                            <use fill="url(#linearGradient-3)" xlink:href="#path-4"></use>
                        </g>
                        <g id="Group-27" transform="translate(25.451348, 26.164274)">
                            <g id="Combined-Shape">
                                <use fill="black" fill-opacity="1" filter="url(#filter-7)" xlink:href="#path-6"></use>
                                <use fill="#FFFFFF" xlink:href="#path-6"></use>
                            </g>
                        </g>
                    </g>
                </g>
            </g>
        </g>
    </g>
</svg>