<svg xmlns="http://www.w3.org/2000/svg" width="500" height="100">
  <g stroke-linecap="round" fill-rule="evenodd" font-size="9pt" stroke="#ff0000" stroke-width="4" fill="none"><path d="M 40.351 48.149 A 20.297 20.297 0 0 0 44.801 48.6 A 12.13 12.13 0 0 0 46.438 48.489 Q 48.704 48.181 50.992 47.02 A 21.302 21.302 0 0 0 54.501 44.75 Q 57.947 42.043 60.403 36.543 A 44.461 44.461 0 0 0 62.301 31.4 Q 61.201 28.2 58.301 25.6 A 60.132 60.132 0 0 1 57.898 26.927 Q 55.937 33.117 53.401 36.15 A 18.665 18.665 0 0 1 53.034 36.577 Q 50.437 39.5 48.101 39.5 A 4.482 4.482 0 0 1 47.549 39.468 Q 45.493 39.212 45.033 36.96 A 7.34 7.34 0 0 1 44.901 35.5 A 30.796 30.796 0 0 1 44.956 33.794 Q 45.123 30.827 45.801 25.7 A 464.2 464.2 0 0 1 45.868 25.2 Q 46.28 22.135 47.201 15.55 Q 48.201 8.4 49.101 1 A 4.778 4.778 0 0 0 48.452 0.686 Q 46.739 0 43.551 0 A 14.861 14.861 0 0 0 40.826 0.239 A 10.826 10.826 0 0 0 37.001 1.7 A 22.371 22.371 0 0 0 33.879 0.698 A 25.697 25.697 0 0 0 27.801 0 L 27.201 0 A 34.442 34.442 0 0 0 25.562 0.039 A 25.91 25.91 0 0 0 7.701 7.8 Q 0.001 15.6 0.001 28.7 A 25.836 25.836 0 0 0 0.267 32.47 A 18.452 18.452 0 0 0 5.551 43.2 A 18.64 18.64 0 0 0 11.591 47.26 A 19.889 19.889 0 0 0 19.251 48.7 A 16.536 16.536 0 0 0 27.283 46.756 A 17.581 17.581 0 0 0 32.601 42.2 Q 34.804 46.9 40.351 48.149 Z M 31.901 30.6 L 34.301 9 A 16.371 16.371 0 0 0 31.282 8.065 A 13.028 13.028 0 0 0 28.701 7.8 A 13.56 13.56 0 0 0 23.814 8.648 A 12.035 12.035 0 0 0 18.551 12.65 Q 15.876 16.111 14.753 21.988 A 44.576 44.576 0 0 0 14.101 27.1 A 16.544 16.544 0 0 0 14.015 28.186 A 13.732 13.732 0 0 0 14.001 28.8 A 16.566 16.566 0 0 0 14.292 31.998 Q 14.66 33.869 15.495 35.343 A 9.198 9.198 0 0 0 16.351 36.6 A 7.838 7.838 0 0 0 18.921 38.718 A 7.642 7.642 0 0 0 22.401 39.5 A 8.059 8.059 0 0 0 28.718 36.447 Q 29.85 35.131 30.784 33.248 A 24.955 24.955 0 0 0 31.901 30.6 Z"/></g>
</svg>