<svg xmlns="http://www.w3.org/2000/svg" width="350" height="100" id="name" fill="transparent">
  <g transform="translate(20, -100)">
    <path class="path" stroke-width="1" stroke="red" d="m 33.020602,134.96237 v 33.5724 h -4.258265 v -5.77024 q -2.715416,3.30169 -6.109688,4.96796 -3.363413,1.66628 -7.374823,1.66628 -7.1279651,0 -12.188512,-5.1531 -5.0296895,-5.18399 -5.0296895,-12.58967 0,-7.25138 5.0914035,-12.4045 5.0914038,-5.15313 12.250226,-5.15313 4.134837,0 7.467395,1.75885 3.363414,1.75885 5.893688,5.27655 v -6.1714 z m -17.27992,3.30171 q -3.610269,0 -6.6651114,1.7897 -3.0548425,1.75884 -4.8754049,4.96798 -1.7897056,3.20912 -1.7897056,6.78853 0,3.54855 1.8205626,6.78854 1.8205626,3.23998 4.875405,5.06055 3.0856993,1.7897 6.6033963,1.7897 3.548554,0 6.726827,-1.7897 3.178272,-1.78972 4.875406,-4.84455 1.727992,-3.05484 1.727992,-6.88112 0,-5.83196 -3.857125,-9.7508 -3.826269,-3.91883 -9.442242,-3.91883 z"/>
    <path class="path" stroke-width="1" stroke="red" d="m 35.149727,168.53477 v -46.53234 h 4.289123 v 18.73021 q 2.715414,-3.33256 6.078826,-4.96799 3.363412,-1.66628 7.374821,-1.66628 7.127966,0 12.157656,5.18398 5.060546,5.15312 5.060546,12.52794 0,7.28225 -5.091404,12.43538 -5.091404,5.1531 -12.250225,5.1531 -4.10398,0 -7.436535,-1.75885 -3.332556,-1.75884 -5.893685,-5.27654 v 6.17139 z m 17.279915,-3.30168 q 3.610269,0 6.665112,-1.75885 3.054842,-1.78972 4.844546,-4.99884 1.820564,-3.20913 1.820564,-6.78855 0,-3.57939 -1.820564,-6.81938 -1.820562,-3.23999 -4.90626,-5.0297 -3.054842,-1.82055 -6.541684,-1.82055 -3.548554,0 -6.75768,1.82055 -3.17827,1.78971 -4.906262,4.84456 -1.697136,3.05483 -1.697136,6.8811 0,5.83197 3.826268,9.75081 3.857125,3.91885 9.473096,3.91885 z"/>
    <path class="path" stroke-width="1" stroke="red" d="m 106.1928,122.00243 v 46.53234 h -4.25826 v -5.77024 q -2.715415,3.30169 -6.109684,4.96796 -3.363412,1.66628 -7.374822,1.66628 -7.127965,0 -12.188511,-5.1531 -5.02969,-5.18399 -5.02969,-12.58967 0,-7.25138 5.091404,-12.4045 5.091404,-5.15313 12.250225,-5.15313 4.134837,0 7.467393,1.75885 3.363412,1.75885 5.893685,5.27655 v -19.13134 z m -17.27991,16.26165 q -3.610268,0 -6.66511,1.7897 -3.054842,1.75884 -4.875406,4.96798 -1.789706,3.20912 -1.789706,6.78853 0,3.54855 1.820564,6.78854 1.820562,3.23998 4.875404,5.06055 3.0857,1.7897 6.603396,1.7897 3.548555,0 6.726826,-1.7897 3.17827,-1.78972 4.875402,-4.84455 1.72799,-3.05484 1.72799,-6.88112 0,-5.83196 -3.857121,-9.7508 -3.826266,-3.91883 -9.442239,-3.91883 z"/>
    <path class="path" stroke-width="1" stroke="red" d="m 109.30594,134.96237 h 4.35083 v 15.67536 q 0,5.7394 0.61714,7.89938 0.92571,3.08571 3.5177,4.87541 2.62284,1.7897 6.23311,1.7897 3.61027,0 6.10968,-1.72798 2.53028,-1.75885 3.48685,-4.5977 0.64799,-1.94399 0.64799,-8.23881 v -15.67536 h 4.41255 v 16.47764 q 0,6.94282 -1.63542,10.46052 -1.60456,3.5177 -4.8754,5.5234 -3.23999,1.97484 -8.14625,1.97484 -4.90626,0 -8.20796,-1.97484 -3.27084,-2.0057 -4.90626,-5.55427 -1.60456,-3.5794 -1.60456,-10.73823 z"/>
    <path class="path" stroke-width="1" stroke="red" d="m 141.45548,122.00243 h 4.31998 v 46.53234 h -4.31998 z"/>
    <path class="path" stroke-width="1" stroke="red" d="m 182.09058,134.96237 v 45.85349 h -4.25827 v -18.05133 q -2.71542,3.30169 -6.10968,4.96796 -3.36342,1.66628 -7.3748,1.66628 -7.12794,0 -12.18844,-5.1531 -5.02966,-5.18399 -5.02966,-12.58967 0,-7.25138 5.09138,-12.4045 5.09137,-5.15313 12.25014,-5.15313 4.13482,0 7.46738,1.75885 3.3634,1.75885 5.89368,5.27655 v -6.1714 z m -17.2799,3.30171 q -3.61025,0 -6.66507,1.7897 -3.05483,1.75884 -4.87539,4.96798 -1.78969,3.20912 -1.78969,6.78853 0,3.54855 1.82056,6.78854 1.82055,3.23998 4.87537,5.06055 3.08567,1.7897 6.60337,1.7897 3.54853,0 6.7268,-1.7897 3.17826,-1.78972 4.87541,-4.84455 1.72798,-3.05484 1.72798,-6.88112 0,-5.83196 -3.85713,-9.7508 -3.82625,-3.91883 -9.44221,-3.91883 z"/>
    <path class="path" stroke-width="1" stroke="red" d="m 184.17166,134.96237 h 4.35084 v 15.67536 q 0,5.7394 0.61714,7.89938 0.9257,3.08571 3.5177,4.87541 2.62284,1.7897 6.23311,1.7897 3.61027,0 6.10967,-1.72798 2.53028,-1.75885 3.48685,-4.5977 0.64801,-1.94399 0.64801,-8.23881 v -15.67536 h 4.41254 v 16.47764 q 0,6.94282 -1.63542,10.46052 -1.60456,3.5177 -4.8754,5.5234 -3.23999,1.97484 -8.14625,1.97484 -4.90626,0 -8.20797,-1.97484 -3.27084,-2.0057 -4.90625,-5.55427 -1.60457,-3.5794 -1.60457,-10.73823 z"/>
    <path class="path" stroke-width="1" stroke="red" d="m 249.60216,122.00243 v 46.53234 h -4.25827 v -5.77024 q -2.71542,3.30169 -6.10967,4.96796 -3.36341,1.66628 -7.37482,1.66628 -7.12797,0 -12.18852,-5.1531 -5.02968,-5.18399 -5.02968,-12.58967 0,-7.25138 5.0914,-12.4045 5.0914,-5.15313 12.25022,-5.15313 4.13483,0 7.46739,1.75885 3.36342,1.75885 5.89368,5.27655 v -19.13134 z m -17.27991,16.26165 q -3.61027,0 -6.66512,1.7897 -3.05484,1.75884 -4.87539,4.96798 -1.78972,3.20912 -1.78972,6.78853 0,3.54855 1.82057,6.78854 1.82057,3.23998 4.87541,5.06055 3.0857,1.7897 6.60339,1.7897 3.54855,0 6.72682,-1.7897 3.17828,-1.78972 4.87541,-4.84455 1.728,-3.05484 1.728,-6.88112 0,-5.83196 -3.85713,-9.7508 -3.82627,-3.91883 -9.44224,-3.91883 z"/>
    <path class="path" stroke-width="1" stroke="red" d="m 250.95983,134.96237 h 4.35083 v 15.67536 q 0,5.7394 0.61714,7.89938 0.92571,3.08571 3.51769,4.87541 2.62285,1.7897 6.23312,1.7897 3.61028,0 6.10969,-1.72798 2.53027,-1.75885 3.48684,-4.5977 0.64799,-1.94399 0.64799,-8.23881 v -15.67536 h 4.41255 v 16.47764 q 0,6.94282 -1.63541,10.46052 -1.60458,3.5177 -4.87542,5.5234 -3.23998,1.97484 -8.14624,1.97484 -4.90625,0 -8.20796,-1.97484 -3.27083,-2.0057 -4.90626,-5.55427 -1.60456,-3.5794 -1.60456,-10.73823 z"/>
    <path class="path" stroke-width="1" stroke="red" d="m 299.75837,138.63436 -2.77711,2.86969 q -3.456,-3.36341 -6.75769,-3.36341 -2.09827,0 -3.61026,1.38857 -1.48114,1.38857 -1.48114,3.23998 0,1.63543 1.23428,3.11655 1.23428,1.51201 5.18397,3.54856 4.8137,2.49941 6.54169,4.8137 1.69713,2.34512 1.69713,5.27654 0,4.13484 -2.90055,7.00454 -2.90056,2.86969 -7.2514,2.86969 -2.90056,0 -5.55426,-1.26513 -2.62284,-1.26514 -4.35084,-3.48684 l 2.71542,-3.0857 q 3.3017,3.73369 7.00454,3.73369 2.59199,0 4.41254,-1.66628 1.82057,-1.66626 1.82057,-3.91883 0,-1.85142 -1.20343,-3.3017 -1.20341,-1.41942 -5.43082,-3.57942 -4.53598,-2.34512 -6.17141,-4.62853 -1.63541,-2.28342 -1.63541,-5.21485 0,-3.82625 2.59198,-6.35653 2.62285,-2.53028 6.6034,-2.53028 4.62855,0 9.3188,4.53599 z"/>
  </g>
</svg>
